<?xml version="1.0" standalone="no"?>
<!DOCTYPE svg PUBLIC "-//W3C//DTD SVG 20010904//EN"
 "http://www.w3.org/TR/2001/REC-SVG-20010904/DTD/svg10.dtd">
<svg version="1.0" xmlns="http://www.w3.org/2000/svg"
 width="1025.000000pt" height="1015.000000pt" viewBox="0 0 1025.000000 1015.000000"
 preserveAspectRatio="xMidYMid meet">

<g transform="translate(0.000000,1015.000000) scale(0.100000,-0.100000)"
fill="#000000" stroke="none">
<path d="M6550 10131 c0 -4 -49 -11 -109 -14 -60 -3 -119 -10 -130 -16 -11 -6
-42 -11 -70 -11 -28 0 -51 -4 -51 -10 0 -5 -22 -10 -50 -10 -27 0 -50 -4 -50
-9 0 -5 -22 -12 -50 -16 -27 -4 -50 -11 -50 -16 0 -5 -16 -9 -35 -9 -19 0 -35
-4 -35 -10 0 -5 -10 -10 -23 -10 -13 0 -32 -7 -43 -15 -10 -8 -27 -15 -36 -15
-10 0 -18 -4 -18 -10 0 -5 -16 -10 -35 -10 -19 0 -35 -4 -35 -9 0 -5 -11 -12
-25 -15 -14 -4 -25 -11 -25 -16 0 -6 -11 -10 -25 -10 -14 0 -25 -4 -25 -10 0
-5 -6 -10 -14 -10 -17 0 -80 -32 -84 -42 -2 -5 -12 -8 -23 -8 -10 0 -19 -4
-19 -10 0 -5 -11 -12 -25 -16 -14 -3 -25 -10 -25 -15 0 -5 -7 -9 -15 -9 -8 0
-15 -4 -15 -10 0 -5 -9 -10 -20 -10 -11 0 -20 -4 -20 -9 0 -5 -10 -13 -22 -17
-13 -4 -30 -15 -39 -25 -9 -11 -21 -19 -27 -19 -6 0 -22 -11 -36 -25 -14 -14
-28 -25 -31 -25 -4 0 -13 -6 -20 -12 -33 -30 -45 -38 -55 -38 -5 0 -10 -7 -10
-15 0 -8 -4 -15 -9 -15 -4 0 -41 -31 -82 -70 -40 -38 -79 -70 -86 -70 -7 0
-13 -6 -13 -13 0 -7 -31 -46 -70 -86 -38 -41 -70 -78 -70 -82 0 -5 -7 -9 -15
-9 -8 0 -15 -7 -15 -15 0 -9 -11 -26 -25 -39 -14 -13 -25 -28 -25 -35 0 -6 -4
-11 -9 -11 -5 0 -12 -8 -16 -19 -3 -10 -19 -33 -35 -50 -17 -17 -30 -38 -30
-46 0 -9 -7 -18 -15 -21 -8 -4 -15 -15 -15 -25 0 -10 -4 -19 -10 -19 -5 0 -10
-7 -10 -15 0 -8 -4 -15 -9 -15 -5 0 -12 -11 -15 -25 -4 -14 -11 -25 -16 -25
-6 0 -10 -9 -10 -19 0 -11 -3 -21 -7 -23 -11 -4 -43 -67 -43 -84 0 -8 -4 -14
-10 -14 -5 0 -10 -11 -10 -25 0 -14 -4 -25 -9 -25 -5 0 -12 -11 -15 -25 -4
-14 -11 -25 -16 -25 -6 0 -10 -13 -10 -30 0 -16 -4 -30 -10 -30 -5 0 -10 -12
-10 -26 0 -14 -7 -32 -15 -40 -8 -9 -15 -26 -15 -40 0 -13 -4 -24 -10 -24 -5
0 -10 -16 -10 -35 0 -19 -4 -35 -10 -35 -5 0 -10 -14 -10 -30 0 -17 -7 -47
-15 -67 -8 -19 -15 -51 -15 -69 0 -19 -4 -34 -10 -34 -5 0 -10 -20 -10 -45 0
-41 -2 -45 -25 -45 -14 0 -25 -4 -25 -10 0 -5 -24 -10 -53 -10 -29 0 -58 -5
-63 -10 -6 -6 -40 -13 -75 -16 -67 -7 -67 -7 -106 40 -7 8 -13 22 -13 31 0 9
-16 31 -35 49 -19 19 -35 39 -35 45 0 7 -11 22 -25 35 -14 13 -25 26 -25 30 0
4 -10 18 -22 31 -38 40 -48 54 -48 65 0 5 -5 10 -11 10 -11 0 -39 25 -39 35 0
8 -27 35 -35 35 -10 0 -35 28 -35 39 0 6 -5 11 -10 11 -6 0 -22 10 -35 23 -37
34 -54 47 -61 47 -4 0 -21 16 -40 35 -18 19 -39 35 -47 35 -8 0 -23 11 -33 25
-10 14 -27 25 -37 25 -10 0 -30 11 -45 25 -15 14 -32 25 -39 25 -7 0 -13 4
-13 9 0 5 -11 12 -25 15 -14 4 -25 11 -25 16 0 6 -9 10 -20 10 -11 0 -20 5
-20 10 0 6 -11 10 -25 10 -14 0 -25 4 -25 9 0 5 -11 12 -25 15 -14 4 -25 11
-25 16 0 6 -11 10 -25 10 -14 0 -25 5 -25 10 0 6 -9 10 -21 10 -11 0 -27 7
-35 15 -9 8 -26 15 -40 15 -13 0 -24 5 -24 10 0 6 -16 10 -35 10 -19 0 -35 3
-35 8 0 10 -82 32 -142 39 -27 3 -48 9 -48 13 0 5 -28 11 -62 13 -35 3 -88 10
-118 15 -72 14 -375 14 -465 1 -38 -6 -98 -13 -132 -16 -35 -2 -63 -9 -63 -14
0 -5 -17 -9 -37 -9 -21 -1 -49 -7 -63 -15 -14 -8 -35 -14 -47 -15 -13 0 -23
-4 -23 -10 0 -5 -20 -10 -44 -10 -24 0 -46 -3 -48 -7 -5 -12 -76 -43 -98 -43
-11 0 -20 -4 -20 -10 0 -5 -11 -10 -25 -10 -14 0 -25 -4 -25 -10 0 -5 -11 -12
-25 -16 -14 -3 -25 -10 -25 -15 0 -5 -11 -9 -25 -9 -14 0 -25 -3 -25 -7 0 -11
-58 -43 -76 -43 -8 0 -14 -4 -14 -10 0 -5 -5 -10 -11 -10 -6 0 -17 -6 -24 -12
-33 -30 -45 -38 -55 -38 -5 0 -10 -3 -10 -8 0 -4 -16 -16 -35 -26 -19 -11 -35
-23 -35 -28 0 -4 -5 -8 -10 -8 -11 0 -25 -10 -65 -47 -13 -13 -29 -23 -35 -23
-5 0 -10 -5 -10 -11 0 -11 -24 -39 -34 -39 -8 0 -156 -148 -156 -155 0 -10
-28 -35 -39 -35 -6 0 -11 -5 -11 -11 0 -6 -6 -17 -12 -24 -29 -32 -38 -45 -38
-52 0 -5 -9 -15 -20 -23 -11 -8 -20 -20 -20 -27 0 -7 -11 -23 -24 -36 -13 -13
-27 -33 -30 -45 -4 -12 -12 -22 -17 -22 -5 0 -9 -7 -9 -15 0 -8 -4 -15 -10
-15 -5 0 -10 -9 -10 -20 0 -11 -4 -20 -9 -20 -5 0 -12 -11 -15 -25 -4 -14 -11
-25 -16 -25 -6 0 -10 -11 -10 -25 0 -14 -4 -25 -10 -25 -5 0 -10 -9 -10 -19 0
-11 -3 -21 -7 -23 -13 -5 -43 -68 -43 -88 0 -10 -3 -20 -7 -22 -10 -4 -43 -98
-43 -120 0 -10 -4 -18 -10 -18 -5 0 -10 -16 -10 -35 0 -19 -4 -35 -9 -35 -5 0
-12 -22 -16 -50 -4 -27 -11 -52 -16 -56 -5 -3 -9 -32 -9 -65 0 -32 -4 -59 -8
-59 -9 0 -26 -213 -26 -320 0 -98 17 -310 25 -310 4 0 9 -28 12 -62 4 -63 21
-137 38 -170 5 -10 9 -31 9 -48 0 -16 5 -30 10 -30 6 0 10 -10 10 -22 1 -13 7
-34 15 -48 8 -14 14 -35 15 -47 0 -13 5 -23 10 -23 6 0 10 -11 10 -25 0 -14 4
-25 9 -25 5 0 12 -11 15 -25 4 -14 11 -25 16 -25 6 0 10 -11 10 -25 0 -14 5
-25 10 -25 6 0 10 -6 10 -14 0 -18 32 -76 43 -76 4 0 7 -10 7 -21 0 -12 11
-32 25 -45 14 -13 25 -30 25 -39 0 -8 5 -15 10 -15 6 0 10 -5 10 -11 0 -6 6
-17 13 -24 26 -30 37 -44 37 -50 0 -3 11 -18 25 -33 14 -15 25 -30 25 -35 0
-12 299 -307 311 -307 6 0 25 -16 43 -35 19 -19 38 -35 45 -35 6 0 11 -4 11
-10 0 -5 7 -10 15 -10 9 0 26 -11 39 -25 13 -14 31 -25 40 -25 9 0 16 -4 16
-9 0 -5 11 -12 25 -15 14 -4 25 -11 25 -16 0 -6 7 -10 15 -10 8 0 15 -4 15
-10 0 -5 6 -10 14 -10 18 0 76 -32 76 -42 0 -5 11 -8 25 -8 14 0 25 -4 25 -9
0 -5 16 -12 35 -15 19 -4 35 -11 35 -16 0 -6 11 -10 25 -10 14 0 25 -4 25 -10
0 -5 10 -10 23 -10 12 -1 33 -7 47 -15 14 -8 35 -14 48 -15 12 0 22 -4 22 -10
0 -5 20 -10 44 -10 31 0 46 -5 50 -16 3 -9 6 -63 6 -120 l0 -104 -205 0 c-124
0 -205 4 -205 10 0 5 -16 12 -35 16 -19 3 -35 10 -35 15 0 5 -11 9 -25 9 -14
0 -25 5 -25 10 0 6 -10 10 -22 10 -13 1 -34 7 -48 15 -14 8 -35 14 -47 15 -13
0 -23 5 -23 10 0 6 -11 10 -25 10 -14 0 -25 5 -25 10 0 6 -10 10 -23 10 -13 0
-32 7 -43 15 -10 8 -31 15 -46 15 -16 0 -28 5 -28 10 0 6 -70 10 -190 10 -120
0 -190 -4 -190 -10 0 -5 5 -10 10 -10 6 0 10 -11 10 -25 0 -14 4 -25 9 -25 5
0 12 -11 15 -25 4 -14 11 -25 16 -25 6 0 10 -9 10 -20 0 -11 5 -20 10 -20 6 0
10 -11 10 -25 0 -14 4 -25 9 -25 5 0 12 -11 15 -25 4 -14 11 -25 16 -25 6 0
10 -11 10 -25 0 -14 5 -25 10 -25 6 0 10 -11 10 -25 0 -14 4 -25 10 -25 5 0
12 -11 16 -25 3 -14 10 -25 15 -25 5 0 9 -11 9 -25 0 -14 5 -25 10 -25 6 0 10
-9 10 -20 0 -11 4 -20 10 -20 5 0 12 -11 16 -25 3 -14 10 -25 15 -25 5 0 9
-11 9 -24 0 -14 7 -31 15 -40 8 -8 15 -22 15 -30 0 -9 5 -16 10 -16 6 0 10
-11 10 -24 0 -13 3 -26 8 -28 10 -4 42 -67 42 -84 0 -8 5 -14 10 -14 6 0 10
-11 10 -25 0 -14 4 -25 10 -25 5 0 12 -11 16 -25 3 -14 10 -25 15 -25 5 0 9
-11 9 -25 0 -14 5 -25 10 -25 6 0 10 -9 10 -20 0 -11 4 -20 10 -20 5 0 12 -11
16 -25 3 -14 10 -25 15 -25 5 0 9 -9 9 -21 0 -22 22 -49 39 -49 6 0 11 5 11
10 0 6 20 10 44 10 25 0 47 4 50 9 3 4 19 11 36 15 36 7 60 27 60 50 0 9 5 16
10 16 6 0 10 6 10 14 0 8 7 16 15 20 8 3 15 12 15 21 0 8 12 29 27 45 l26 30
189 0 188 0 0 -1266 c0 -1083 2 -1267 14 -1280 12 -11 69 -14 324 -14 170 0
311 -2 313 -4 7 -7 -15 -183 -23 -192 -5 -4 -8 -45 -8 -91 0 -49 -4 -83 -10
-83 -6 0 -10 -26 -10 -59 0 -99 -7 -118 -51 -135 -22 -9 -57 -16 -79 -16 -22
0 -40 -4 -40 -10 0 -6 -27 -10 -60 -10 -33 0 -60 -4 -60 -9 0 -5 -31 -12 -70
-16 -38 -4 -70 -11 -70 -16 0 -5 -27 -9 -60 -9 -33 0 -60 -4 -60 -10 0 -5 -21
-10 -46 -10 -25 0 -54 -5 -65 -10 -10 -6 -48 -13 -84 -17 -36 -3 -65 -10 -65
-14 0 -5 -24 -9 -54 -9 -30 0 -57 -4 -60 -9 -3 -5 -33 -12 -66 -16 -33 -4 -63
-11 -66 -16 -3 -5 -32 -9 -65 -9 -33 0 -59 -4 -59 -10 0 -5 -17 -10 -37 -10
-21 0 -60 -7 -87 -15 -27 -8 -69 -15 -93 -15 -23 0 -43 -4 -43 -10 0 -6 -26
-10 -59 -10 -38 0 -61 -5 -65 -12 -5 -11 -7 -11 -12 0 -3 6 -17 12 -30 12 -13
0 -24 4 -24 9 0 5 -11 12 -25 15 -14 4 -25 11 -25 16 0 6 -9 10 -19 10 -11 0
-21 3 -23 8 -2 4 -30 21 -63 37 -33 17 -62 33 -63 38 -2 4 -11 7 -21 7 -9 0
-21 4 -27 10 -6 6 -22 6 -44 0 -19 -6 -54 -10 -77 -10 -24 0 -43 -4 -43 -10 0
-6 -27 -10 -60 -10 -33 0 -60 -4 -60 -9 0 -4 -27 -11 -60 -15 l-60 -7 0 -359
0 -359 58 6 c31 3 59 9 62 14 3 4 32 9 65 12 75 7 191 30 201 40 4 4 25 7 47
7 37 0 46 7 184 145 79 80 150 145 158 145 8 0 15 5 15 10 0 6 20 10 45 10 25
0 45 4 45 9 0 4 27 11 60 15 33 4 62 11 65 16 4 6 26 10 51 10 24 0 44 5 44
10 0 6 20 10 44 10 24 0 60 7 79 15 20 8 50 15 67 15 16 0 30 5 30 10 0 6 27
10 60 10 33 0 60 4 60 9 0 4 23 11 52 14 28 4 56 11 62 17 5 5 29 10 53 10 24
0 43 5 43 10 0 6 27 10 60 10 33 0 60 4 60 10 0 5 27 12 60 16 33 4 60 11 60
15 0 5 23 9 50 9 28 0 50 4 50 8 0 8 88 27 178 38 23 3 42 10 42 15 0 5 25 9
55 9 30 0 55 4 55 10 0 5 27 12 60 16 33 4 60 11 60 15 0 5 6 9 14 9 16 0 26
38 33 127 2 35 9 63 14 63 5 0 9 31 9 68 0 37 5 73 10 78 6 6 13 40 17 77 3
37 10 67 14 67 5 0 9 34 9 75 0 41 4 75 9 75 6 0 11 19 13 43 l3 42 3093 3
c2664 2 3095 4 3108 16 12 13 14 309 14 2114 0 1906 -1 2100 -16 2106 -9 3
-126 6 -260 6 -237 0 -244 1 -244 20 0 11 5 20 10 20 12 0 27 13 130 115 80
79 100 101 100 110 0 3 20 25 45 49 25 25 45 47 45 51 0 3 6 13 13 20 26 30
37 44 37 50 0 3 11 17 25 31 14 14 25 29 25 35 0 5 11 22 25 37 14 15 25 32
25 39 0 7 5 13 10 13 6 0 10 9 10 20 0 11 5 20 10 20 6 0 10 6 10 14 0 8 7 16
15 20 8 3 15 15 15 26 0 11 5 20 10 20 6 0 10 6 10 14 0 18 32 76 43 76 4 0 7
11 7 25 0 14 4 25 9 25 5 0 12 11 15 25 4 14 11 25 16 25 6 0 10 11 10 25 0
14 5 25 10 25 6 0 10 14 10 31 0 17 7 37 15 45 8 9 15 26 15 40 0 13 5 24 10
24 6 0 10 16 10 35 0 19 3 35 8 35 8 0 30 75 39 133 3 20 9 37 14 37 5 0 9 21
9 46 0 25 5 54 10 65 6 10 13 48 17 84 3 36 10 65 14 65 12 0 12 607 0 614 -4
3 -11 37 -14 75 -3 39 -11 79 -16 90 -6 11 -11 40 -11 65 0 25 -4 46 -9 46 -5
0 -11 17 -14 38 -9 57 -31 132 -39 132 -5 0 -8 16 -8 35 0 19 -4 35 -9 35 -5
0 -12 16 -15 35 -4 19 -11 35 -16 35 -6 0 -10 11 -10 25 0 14 -4 25 -10 25 -5
0 -10 9 -10 21 0 11 -7 27 -15 35 -8 9 -15 26 -15 40 0 13 -4 24 -10 24 -5 0
-10 9 -10 20 0 11 -4 20 -9 20 -5 0 -12 11 -15 25 -4 14 -11 25 -16 25 -6 0
-10 11 -10 25 0 14 -4 25 -10 25 -5 0 -10 5 -10 11 0 6 -6 17 -12 24 -32 35
-38 45 -38 61 0 9 -11 27 -25 40 -14 13 -25 30 -25 39 0 8 -4 15 -10 15 -5 0
-10 5 -10 10 0 6 -11 23 -25 38 -14 15 -25 31 -25 35 0 5 -16 23 -35 41 -19
19 -35 38 -35 45 0 6 -27 38 -60 71 -33 33 -60 63 -60 66 0 8 -27 34 -35 34
-10 0 -35 28 -35 39 0 6 -4 11 -10 11 -5 0 -37 27 -71 60 -34 33 -66 60 -71
60 -5 0 -25 16 -44 35 -18 19 -38 35 -44 35 -5 0 -10 5 -10 10 0 6 -9 10 -20
10 -11 0 -20 7 -20 15 0 8 -7 15 -15 15 -8 0 -15 5 -15 10 0 6 -9 10 -20 10
-11 0 -20 4 -20 8 0 5 -16 17 -35 28 -19 10 -35 22 -35 25 0 4 -11 10 -25 13
-14 4 -25 11 -25 16 0 6 -7 10 -15 10 -8 0 -15 5 -15 10 0 6 -9 10 -20 10 -11
0 -20 5 -20 10 0 6 -11 10 -25 10 -14 0 -25 4 -25 10 0 5 -11 12 -25 16 -14 3
-25 10 -25 15 0 5 -11 9 -25 9 -14 0 -25 4 -25 8 0 10 -71 42 -93 42 -10 0
-17 5 -17 10 0 6 -10 10 -22 10 -13 0 -32 7 -42 15 -11 8 -30 15 -43 15 -13 0
-23 4 -23 9 0 5 -17 11 -37 14 -56 7 -127 27 -137 38 -6 5 -32 9 -58 9 -26 0
-48 4 -48 9 0 5 -24 11 -52 14 -29 3 -75 10 -103 16 -27 5 -85 10 -127 10 -45
1 -78 5 -78 11 0 6 -53 10 -140 10 -77 0 -140 -4 -140 -9z m267 -1176 c31 -8
74 -15 95 -15 21 0 38 -4 38 -10 0 -5 20 -10 45 -10 25 0 45 -4 45 -10 0 -5
11 -10 24 -10 13 0 29 -7 36 -15 7 -8 23 -15 36 -15 13 0 24 -4 24 -10 0 -5
11 -10 25 -10 14 0 25 -4 25 -10 0 -5 11 -12 25 -16 14 -3 25 -10 25 -15 0 -5
9 -9 20 -9 11 0 20 -4 20 -10 0 -5 6 -10 14 -10 8 0 16 -7 20 -15 3 -8 13 -15
22 -15 8 0 31 -16 50 -35 18 -19 38 -35 44 -35 13 0 170 -159 170 -172 0 -5
16 -24 35 -42 19 -19 35 -41 35 -50 0 -16 6 -26 38 -61 6 -7 12 -18 12 -24 0
-6 5 -11 10 -11 6 0 10 -11 10 -25 0 -14 4 -25 10 -25 5 0 12 -11 16 -25 3
-14 10 -25 15 -25 5 0 9 -15 9 -34 0 -19 3 -36 8 -38 11 -5 42 -102 42 -132 0
-14 4 -26 9 -26 11 0 22 -125 22 -255 1 -127 -11 -275 -22 -275 -5 0 -9 -15
-9 -33 0 -18 -7 -42 -15 -53 -8 -10 -15 -31 -15 -46 0 -16 -4 -28 -10 -28 -5
0 -10 -13 -10 -30 0 -16 -4 -30 -10 -30 -5 0 -10 -8 -10 -19 0 -10 -7 -24 -15
-31 -8 -7 -15 -19 -15 -26 0 -8 -4 -14 -10 -14 -5 0 -10 -9 -10 -20 0 -19 -6
-29 -37 -65 -7 -7 -13 -18 -13 -24 0 -6 -4 -11 -10 -11 -5 0 -10 -7 -10 -15 0
-8 -11 -25 -25 -39 -14 -14 -25 -28 -25 -31 0 -10 -28 -35 -39 -35 -6 0 -11
-5 -11 -10 0 -11 -95 -110 -105 -110 -4 0 -21 -16 -39 -35 -19 -19 -39 -35
-45 -35 -7 0 -22 -11 -35 -25 -13 -14 -33 -25 -45 -25 -11 0 -21 -3 -21 -7 0
-11 -58 -43 -76 -43 -8 0 -14 -4 -14 -10 0 -5 -11 -10 -24 -10 -13 0 -26 -3
-28 -7 -6 -15 -79 -43 -108 -43 -17 0 -30 -4 -30 -10 0 -5 -15 -10 -33 -10
-18 0 -38 -5 -45 -12 -7 -7 -51 -14 -102 -16 -49 -3 -90 -8 -90 -13 0 -5 -31
-9 -70 -9 -40 0 -70 4 -70 10 0 6 -32 10 -75 10 -45 0 -90 6 -112 15 -19 8
-48 15 -64 15 -16 0 -29 5 -29 10 0 6 -18 10 -39 10 -22 0 -41 3 -43 8 -5 11
-76 42 -98 42 -11 0 -20 3 -20 8 0 4 -16 16 -35 26 -19 11 -35 23 -35 28 0 4
-9 8 -20 8 -19 0 -29 6 -65 38 -7 6 -17 12 -21 12 -4 0 -22 16 -41 35 -19 19
-38 35 -44 35 -12 0 -149 137 -149 150 0 5 -16 27 -35 47 -19 20 -35 43 -35
50 0 7 -4 13 -10 13 -5 0 -10 7 -10 15 0 8 -4 15 -10 15 -5 0 -12 11 -16 25
-3 14 -10 25 -15 25 -5 0 -9 9 -9 20 0 11 -4 20 -10 20 -5 0 -10 11 -10 24 0
13 -7 26 -15 30 -9 3 -15 18 -15 36 0 16 -4 30 -10 30 -5 0 -10 11 -10 24 0
14 -4 27 -9 31 -6 3 -13 26 -17 50 -3 25 -10 45 -15 45 -5 0 -9 32 -9 70 0 40
-4 70 -10 70 -6 0 -10 58 -10 155 0 97 4 155 10 155 6 0 10 27 10 60 0 33 4
60 9 60 4 0 11 21 14 47 3 26 10 49 16 51 6 2 11 19 11 38 0 19 5 34 10 34 6
0 10 6 10 14 0 17 32 80 43 84 4 2 7 12 7 23 0 10 4 19 9 19 5 0 12 11 15 25
4 14 11 25 16 25 6 0 10 9 10 20 0 11 5 20 10 20 6 0 10 5 10 10 0 6 11 21 25
34 14 13 25 28 25 35 0 14 195 211 209 211 6 0 21 11 35 25 14 14 30 25 36 25
5 0 10 4 10 10 0 5 11 12 25 16 14 3 25 10 25 15 0 5 9 9 20 9 11 0 20 4 20 9
0 5 11 12 25 15 14 4 25 11 25 16 0 6 11 10 25 10 14 0 25 5 25 10 0 6 9 10
21 10 11 0 27 7 35 15 9 8 26 15 40 15 13 0 24 5 24 10 0 6 20 10 45 10 25 0
45 4 45 9 0 4 27 11 61 15 33 3 68 10 77 16 27 15 243 12 309 -5z m-4487 -885
c0 -6 27 -10 60 -10 33 0 60 -4 60 -9 0 -5 20 -12 45 -15 25 -4 45 -11 45 -17
0 -5 14 -9 30 -9 17 0 30 -4 30 -10 0 -5 8 -10 19 -10 10 0 24 -7 31 -15 7 -8
19 -15 26 -15 8 0 14 -4 14 -10 0 -5 9 -10 20 -10 19 0 29 -6 65 -37 7 -7 17
-13 21 -13 4 0 22 -16 41 -35 19 -19 38 -35 44 -35 11 0 79 -68 79 -79 0 -5
14 -22 30 -39 17 -18 30 -36 30 -42 0 -5 7 -10 15 -10 8 0 15 -9 15 -20 0 -19
6 -29 38 -65 6 -7 12 -18 12 -24 0 -6 5 -11 10 -11 6 0 10 -15 10 -34 0 -19 3
-36 8 -38 14 -6 42 -79 42 -108 0 -17 5 -30 10 -30 6 0 10 -21 10 -46 0 -25 5
-55 11 -66 20 -37 23 -167 5 -236 -9 -35 -16 -84 -16 -108 0 -24 -4 -44 -10
-44 -5 0 -10 -15 -10 -32 0 -18 -7 -42 -15 -52 -8 -11 -15 -28 -15 -38 0 -10
-4 -18 -10 -18 -5 0 -10 -11 -10 -25 0 -14 -4 -25 -9 -25 -5 0 -12 -11 -15
-25 -4 -14 -11 -25 -16 -25 -6 0 -10 -7 -10 -15 0 -8 -4 -15 -10 -15 -5 0 -10
-8 -10 -19 0 -10 -11 -27 -25 -37 -14 -10 -25 -22 -25 -27 0 -8 -12 -24 -47
-62 -13 -13 -23 -29 -23 -35 0 -5 -5 -10 -11 -10 -14 0 -39 -25 -39 -39 0 -6
-9 -11 -20 -11 -11 0 -20 -4 -20 -10 0 -5 -7 -10 -15 -10 -8 0 -15 -7 -15 -15
0 -8 -7 -15 -15 -15 -8 0 -15 -4 -15 -10 0 -5 -7 -10 -15 -10 -9 0 -26 -9 -38
-20 -12 -12 -32 -23 -44 -26 -13 -4 -23 -10 -23 -15 0 -5 -8 -9 -17 -9 -10 0
-27 -7 -37 -15 -11 -8 -28 -15 -38 -15 -10 0 -18 -4 -18 -10 0 -5 -18 -10 -40
-10 -22 0 -40 -4 -40 -10 0 -5 -18 -10 -40 -10 -22 0 -57 -7 -77 -15 -24 -10
-70 -15 -143 -15 -73 0 -119 5 -143 15 -20 8 -55 15 -77 15 -22 0 -40 5 -40
10 0 6 -14 10 -30 10 -17 0 -38 4 -48 8 -9 5 -32 16 -50 25 -19 9 -40 17 -48
17 -8 0 -14 5 -14 10 0 6 -11 10 -25 10 -16 0 -25 6 -25 15 0 8 -7 15 -15 15
-8 0 -15 5 -15 10 0 6 -9 10 -20 10 -11 0 -20 5 -20 10 0 6 -7 10 -15 10 -8 0
-15 7 -15 15 0 8 -9 15 -20 15 -11 0 -20 5 -20 10 0 6 -7 10 -15 10 -8 0 -15
5 -15 11 0 11 -25 39 -35 39 -9 0 -35 27 -35 37 0 4 -11 17 -25 27 -14 10 -25
26 -25 35 0 9 -11 25 -25 35 -14 10 -25 27 -25 37 0 11 -4 19 -10 19 -5 0 -10
7 -10 15 0 8 -3 15 -7 15 -11 0 -43 58 -43 76 0 8 -4 14 -10 14 -5 0 -10 14
-10 31 0 17 -7 37 -15 45 -8 9 -15 26 -15 39 0 13 -4 27 -10 30 -5 3 -10 31
-10 61 0 30 -4 54 -10 54 -6 0 -10 55 -10 145 0 90 4 145 10 145 6 0 10 27 10
60 0 33 4 60 10 60 6 0 10 10 10 23 0 13 7 32 15 43 8 10 15 31 15 47 0 15 5
27 10 27 6 0 10 11 10 24 0 13 7 26 15 30 8 3 15 15 15 26 0 11 5 20 10 20 6
0 10 5 10 11 0 6 6 17 13 24 26 30 37 44 37 50 0 3 10 17 23 30 31 33 47 53
47 58 0 9 80 87 90 87 5 0 20 11 34 25 14 14 28 25 31 25 4 0 13 6 20 13 36
31 46 37 65 37 11 0 20 5 20 10 0 6 5 10 11 10 6 0 17 7 25 15 9 8 24 15 35
15 10 0 19 5 19 10 0 6 14 10 30 10 17 0 30 4 30 9 0 6 20 13 45 17 25 3 45
10 45 15 0 5 27 9 60 9 33 0 60 4 60 10 0 6 47 10 120 10 73 0 120 -4 120 -10z
m2233 -1634 c9 -7 17 -21 17 -30 0 -10 6 -24 13 -31 29 -33 37 -45 37 -55 0
-5 5 -10 10 -10 6 0 10 -6 10 -13 0 -7 11 -24 25 -39 14 -15 25 -30 25 -33 0
-7 14 -24 48 -60 12 -13 22 -27 22 -31 0 -4 11 -17 25 -30 14 -13 25 -27 25
-33 0 -15 250 -261 266 -261 8 0 14 -9 14 -20 0 -20 -7 -20 -620 -20 -567 0
-620 1 -620 16 0 9 11 27 25 40 14 13 25 30 25 39 0 8 4 15 9 15 5 0 12 11 15
25 4 14 11 25 16 25 6 0 10 7 10 15 0 8 5 15 10 15 6 0 10 9 10 20 0 11 4 20
10 20 5 0 12 11 16 25 3 14 10 25 15 25 5 0 9 11 9 24 0 13 3 26 8 28 10 4 42
67 42 84 0 8 5 14 10 14 6 0 10 14 10 30 0 17 4 30 10 30 5 0 12 16 16 35 3
19 10 38 15 41 5 3 9 14 9 25 0 15 7 19 30 19 17 0 47 7 67 15 19 8 60 15 89
15 30 0 54 5 54 10 0 6 21 10 48 10 26 0 54 5 62 10 20 13 42 12 63 -4z m3628
-4063 c16 -10 29 -21 29 -25 0 -4 5 -8 10 -8 14 0 59 -51 60 -67 0 -7 5 -13
10 -13 6 0 10 -37 10 -90 0 -53 -4 -90 -10 -90 -5 0 -10 -5 -10 -10 0 -11 -15
-31 -38 -53 -33 -31 -41 -37 -50 -37 -6 0 -12 -5 -14 -11 -5 -16 -181 -15
-186 0 -2 6 -9 11 -15 11 -19 0 -73 53 -81 78 -4 12 -12 22 -17 22 -16 0 -11
158 6 190 9 17 20 30 25 30 6 0 10 9 10 20 0 13 7 20 20 20 11 0 20 5 20 10 0
6 6 10 14 10 7 0 19 7 26 15 18 22 143 21 181 -2z"/>
<path d="M6470 8600 c0 -5 -6 -10 -14 -10 -23 0 -106 -85 -106 -109 0 -11 -4
-21 -10 -21 -5 0 -10 -25 -10 -55 0 -30 5 -55 10 -55 6 0 10 -9 10 -21 0 -20
52 -78 100 -112 34 -23 137 -23 179 1 17 9 31 20 31 25 0 4 5 7 11 7 14 0 39
25 39 39 0 6 5 11 10 11 6 0 10 13 10 29 0 17 5 33 10 36 6 3 10 22 10 41 0
19 -4 34 -10 34 -5 0 -10 11 -10 25 0 14 -4 25 -10 25 -5 0 -10 11 -10 25 0
14 -5 25 -10 25 -6 0 -22 11 -36 25 -14 14 -31 25 -39 25 -8 0 -15 5 -15 10 0
6 -30 10 -70 10 -40 0 -70 -4 -70 -10z"/>
<path d="M7088 8223 c-10 -2 -18 -9 -18 -14 0 -5 -5 -9 -10 -9 -6 0 -22 -11
-35 -25 -14 -13 -25 -29 -25 -35 0 -5 -7 -10 -15 -10 -10 0 -15 -11 -15 -35 0
-19 -4 -35 -10 -35 -5 0 -10 -18 -10 -40 0 -22 5 -40 10 -40 6 0 10 -11 10
-24 0 -28 79 -116 104 -116 9 0 16 -4 16 -10 0 -6 30 -10 70 -10 40 0 70 4 70
10 0 6 11 10 25 10 16 0 25 6 25 15 0 8 5 15 11 15 14 0 39 25 39 39 0 6 3 11
8 11 14 0 45 119 34 133 -5 6 -13 27 -17 45 -3 17 -11 32 -16 32 -5 0 -9 5 -9
11 0 6 -6 17 -14 25 -8 8 -19 14 -25 14 -6 0 -11 3 -11 8 0 4 -14 15 -31 25
-29 16 -116 22 -161 10z"/>
<path d="M6040 8070 c0 -5 -16 -10 -35 -10 -19 0 -35 -4 -35 -10 0 -5 -6 -10
-13 -10 -30 0 -87 -73 -87 -110 0 -11 -4 -20 -10 -20 -5 0 -10 -20 -10 -45 0
-25 5 -45 10 -45 6 0 10 -9 10 -20 0 -19 6 -29 38 -65 6 -7 12 -18 12 -24 0
-6 9 -11 20 -11 11 0 20 -4 20 -9 0 -5 14 -12 30 -16 17 -4 30 -11 30 -16 0
-23 127 7 138 34 2 4 10 7 18 7 19 0 54 36 54 55 0 8 4 15 10 15 5 0 12 16 16
35 3 19 10 38 15 41 12 7 11 44 -1 44 -5 0 -12 16 -16 35 -3 19 -10 35 -15 35
-5 0 -9 11 -9 25 0 14 -5 25 -10 25 -10 0 -22 8 -55 38 -7 6 -27 12 -44 12
-17 0 -31 5 -31 10 0 6 -11 10 -25 10 -14 0 -25 -4 -25 -10z"/>
<path d="M7060 7520 c0 -5 -11 -10 -25 -10 -14 0 -38 -8 -53 -17 -24 -16 -34
-25 -72 -70 -5 -7 -10 -21 -10 -33 0 -11 -4 -20 -10 -20 -5 0 -10 -22 -10 -50
0 -27 5 -50 10 -50 6 0 10 -10 10 -23 0 -21 20 -58 45 -82 13 -13 79 -45 94
-45 6 0 11 -4 11 -10 0 -24 126 6 138 33 2 4 10 7 18 7 19 0 54 36 54 55 0 8
4 15 9 15 10 0 23 52 23 95 0 43 -13 95 -23 95 -5 0 -9 5 -9 11 0 6 -17 29
-39 50 -28 29 -47 39 -70 39 -17 0 -31 5 -31 10 0 6 -13 10 -30 10 -16 0 -30
-4 -30 -10z"/>
<path d="M6243 7377 c-24 -24 -42 -37 -53 -37 -5 0 -10 -7 -10 -15 0 -8 -4
-15 -10 -15 -5 0 -10 -9 -10 -20 0 -11 -4 -20 -10 -20 -6 0 -10 -30 -10 -69 0
-39 5 -73 10 -76 6 -3 10 -13 10 -21 0 -22 68 -86 113 -106 21 -10 53 -18 72
-18 32 0 96 26 103 43 2 4 12 7 23 7 10 0 19 6 19 13 0 7 11 24 25 39 23 25
25 35 25 118 0 53 -4 90 -10 90 -5 0 -10 7 -10 15 0 8 -5 15 -11 15 -6 0 -26
16 -45 35 -33 35 -34 35 -121 35 -55 -1 -92 -5 -100 -13z"/>
<path d="M2065 7780 c-3 -5 -13 -10 -21 -10 -9 0 -33 -18 -55 -40 -37 -38 -39
-42 -39 -105 0 -37 4 -65 10 -65 6 0 10 -11 10 -25 0 -14 5 -25 10 -25 10 0
22 -8 55 -37 8 -8 41 -13 80 -13 62 0 78 5 108 38 31 33 37 41 37 51 0 6 5 11
10 11 6 0 10 27 10 60 0 33 -4 60 -10 60 -5 0 -10 7 -10 16 0 20 -54 74 -74
74 -8 0 -18 5 -21 10 -3 6 -26 10 -50 10 -24 0 -47 -4 -50 -10z"/>
<path d="M2550 7470 c0 -5 -5 -10 -10 -10 -13 0 -70 -57 -70 -70 0 -6 -4 -10
-10 -10 -6 0 -10 -28 -10 -65 0 -37 4 -65 10 -65 6 0 10 -7 10 -15 0 -8 7 -15
15 -15 8 0 15 -5 15 -11 0 -14 25 -39 39 -39 6 0 11 -4 11 -10 0 -6 29 -10 66
-10 64 0 68 2 105 39 22 21 39 43 39 49 0 6 6 12 12 14 17 6 16 130 0 136 -7
2 -12 8 -12 13 0 13 -46 59 -60 59 -5 0 -10 5 -10 10 0 6 -30 10 -70 10 -40 0
-70 -4 -70 -10z"/>
<path d="M1690 7350 c0 -5 -11 -10 -25 -10 -14 0 -25 -4 -25 -10 0 -5 -7 -10
-15 -10 -8 0 -15 -5 -15 -11 0 -7 -8 -19 -18 -28 -11 -9 -22 -33 -26 -55 -12
-62 1 -110 43 -155 l38 -41 77 0 c48 0 83 5 91 13 48 42 65 63 65 77 0 5 5 10
10 10 6 0 10 25 10 55 0 30 -4 55 -9 55 -5 0 -12 11 -15 25 -4 14 -11 25 -16
25 -6 0 -10 7 -10 15 0 8 -7 15 -15 15 -8 0 -15 5 -15 10 0 6 -13 10 -30 10
-16 0 -30 5 -30 10 0 6 -16 10 -35 10 -19 0 -35 -4 -35 -10z"/>
<path d="M2500 6900 c0 -5 -7 -10 -15 -10 -26 0 -85 -71 -85 -102 0 -15 -4
-28 -10 -28 -5 0 -10 -9 -10 -20 0 -11 5 -20 10 -20 6 0 10 -11 10 -24 0 -14
7 -31 15 -40 8 -8 15 -17 15 -21 0 -14 30 -35 49 -35 12 0 21 -4 21 -10 0 -6
27 -10 60 -10 33 0 60 4 60 10 0 6 9 10 20 10 11 0 20 5 20 10 0 6 7 10 15 10
8 0 15 7 15 15 0 8 4 15 8 15 5 0 15 24 22 53 9 40 10 59 1 75 -6 11 -11 28
-11 38 0 18 -58 74 -77 74 -7 0 -13 5 -13 10 0 6 -27 10 -60 10 -33 0 -60 -4
-60 -10z"/>
<path d="M1900 6800 c0 -5 -9 -10 -21 -10 -22 0 -49 -22 -49 -39 0 -6 -4 -11
-10 -11 -5 0 -12 -11 -16 -25 -3 -14 -10 -25 -15 -25 -5 0 -9 -20 -9 -45 0
-25 5 -45 10 -45 6 0 10 -7 10 -15 0 -8 11 -25 25 -39 14 -14 25 -30 25 -36 0
-5 7 -10 15 -10 8 0 15 -4 15 -10 0 -6 30 -10 70 -10 40 0 70 4 70 10 0 6 8
10 18 10 17 0 52 32 52 49 0 5 7 14 15 21 10 8 15 31 15 71 0 38 -5 63 -15 73
-8 8 -15 21 -15 30 0 8 -9 18 -20 21 -11 3 -20 11 -20 16 0 5 -7 9 -15 9 -8 0
-15 5 -15 10 0 6 -27 10 -60 10 -33 0 -60 -4 -60 -10z"/>
<path d="M10204 5485 c-4 -8 -12 -15 -20 -15 -8 0 -14 -4 -14 -10 0 -5 -9 -10
-20 -10 -11 0 -20 -4 -20 -10 0 -5 -6 -10 -13 -10 -7 0 -24 -11 -39 -25 -15
-14 -34 -25 -43 -25 -9 0 -23 -6 -30 -12 -33 -30 -45 -38 -55 -38 -5 0 -10 -4
-10 -10 0 -5 -9 -10 -20 -10 -11 0 -23 -7 -26 -15 -5 -13 -71 -15 -504 -15
l-498 0 -6 -22 c-3 -13 -4 -437 -3 -943 l2 -920 493 -3 c316 -1 492 -6 492
-12 0 -6 9 -10 20 -10 11 0 20 -4 20 -10 0 -5 7 -10 15 -10 8 0 15 -4 15 -10
0 -5 11 -12 25 -16 14 -3 25 -10 25 -15 0 -5 6 -9 13 -9 7 0 24 -11 39 -25 15
-14 34 -25 43 -25 9 0 23 -6 30 -12 33 -30 45 -38 55 -38 5 0 10 -4 10 -10 0
-5 9 -10 19 -10 11 0 23 -4 26 -10 3 -5 10 -10 16 -10 5 0 9 446 9 1170 0
1169 0 1170 -20 1170 -11 0 -23 -7 -26 -15z"/>
</g>
</svg>
