<?xml version="1.0" standalone="no"?>
<!DOCTYPE svg PUBLIC "-//W3C//DTD SVG 20010904//EN"
 "http://www.w3.org/TR/2001/REC-SVG-20010904/DTD/svg10.dtd">
<svg version="1.0" xmlns="http://www.w3.org/2000/svg"
 width="1380.000000pt" height="1367.000000pt" viewBox="0 0 1380.000000 1367.000000"
 preserveAspectRatio="xMidYMid meet">

<g transform="translate(0.000000,1367.000000) scale(0.100000,-0.100000)"
fill="#E22E3A" stroke="none">
<path d="M4285 12166 c-63 -30 -104 -73 -112 -118 -8 -52 24 -196 52 -238 14
-19 40 -48 60 -63 24 -19 35 -36 35 -54 0 -46 -145 -283 -184 -301 -13 -6 -66
-14 -117 -18 -102 -7 -128 0 -197 51 -28 20 -38 22 -60 14 -49 -19 -88 -57
-121 -118 -38 -71 -52 -75 -114 -32 -23 15 -61 38 -84 50 l-42 21 -11 -39 c-6
-22 -11 -144 -13 -272 l-2 -233 64 -52 c77 -62 95 -92 88 -147 -8 -57 -56
-123 -88 -119 -13 1 -46 5 -73 9 -52 6 -116 -17 -116 -42 0 -7 14 -29 30 -50
35 -45 36 -47 9 -105 -11 -25 -32 -76 -46 -115 -14 -38 -31 -76 -38 -84 -11
-11 -42 -14 -138 -12 -142 2 -195 -8 -288 -56 -164 -85 -279 -286 -279 -491 0
-164 58 -300 177 -419 40 -40 73 -75 73 -78 0 -3 -153 -5 -340 -5 l-341 0 3
-92 3 -93 5028 -3 5027 -2 0 95 0 95 -424 0 c-276 0 -427 4 -431 10 -7 11 24
43 92 97 48 38 117 138 107 155 -4 6 -3 8 3 5 14 -9 50 80 64 158 6 33 8 90 5
127 -7 79 -50 222 -74 247 -9 10 -18 24 -20 32 -6 22 -68 94 -109 126 -50 38
-109 68 -158 83 -169 48 -307 24 -452 -79 -71 -51 -102 -52 -165 -6 -65 48
-68 67 -28 189 42 129 52 141 111 126 25 -6 63 -10 85 -8 34 3 39 6 39 28 0
20 -8 27 -43 40 -80 30 -88 58 -27 97 43 28 72 83 81 154 9 76 15 83 83 108
82 30 114 71 119 155 6 104 -43 202 -177 350 -27 30 -65 79 -84 108 -45 72
-86 104 -155 124 -111 32 -142 46 -167 75 -29 35 -29 42 -13 119 11 54 10 59
-15 105 -22 39 -27 60 -27 118 0 97 -18 123 -121 176 -44 22 -91 41 -103 41
-13 0 -41 -13 -64 -30 -57 -41 -82 -45 -136 -22 -25 12 -48 17 -51 13 -2 -5
17 -34 44 -64 27 -31 52 -70 56 -87 8 -35 -2 -107 -16 -116 -16 -9 -10 -87 11
-143 22 -60 21 -60 52 -75 21 -11 23 -19 26 -114 1 -56 -1 -109 -5 -116 -9
-15 -219 -242 -318 -343 l-62 -63 -59 0 c-109 0 -138 -32 -164 -181 -10 -57
-26 -137 -35 -178 -17 -71 -17 -75 1 -88 10 -7 26 -13 36 -13 30 0 32 -26 9
-108 -12 -42 -28 -99 -35 -127 -8 -27 -19 -68 -25 -91 -15 -55 -36 -63 -152
-56 -170 8 -267 -28 -391 -146 l-78 -75 -58 12 c-41 8 -64 19 -81 38 -21 24
-23 33 -18 88 11 107 22 129 91 185 72 58 91 87 82 123 -12 48 -87 49 -180 2
-62 -31 -79 -35 -145 -35 -79 0 -124 14 -129 41 -1 8 18 42 44 74 57 74 80
119 89 170 13 84 14 85 68 109 59 26 80 46 102 99 32 78 10 167 -71 283 -48
69 -176 191 -230 220 -33 18 -36 18 -65 1 -46 -26 -73 -21 -108 18 -17 20 -31
40 -31 45 0 5 12 18 27 30 l27 21 -27 52 c-15 29 -35 74 -46 100 -15 36 -28
51 -53 61 -60 25 -157 -7 -202 -67 -23 -31 -26 -79 -12 -220 9 -90 28 -117 83
-117 32 0 33 -1 33 -44 0 -39 -6 -53 -48 -103 -77 -91 -166 -169 -234 -202
-58 -29 -88 -34 -209 -40 -27 -2 -107 -61 -129 -96 -20 -32 -100 -376 -100
-429 0 -12 11 -33 25 -46 14 -13 25 -31 25 -40 0 -19 -55 -257 -65 -282 -9
-21 -3 -21 -140 -22 -103 -1 -115 -3 -177 -34 -47 -23 -84 -52 -125 -97 -99
-107 -140 -218 -130 -354 6 -92 34 -170 87 -242 53 -72 66 -98 54 -108 -5 -5
-103 -14 -219 -21 -268 -15 -1217 -10 -1222 6 -2 6 30 46 71 88 114 116 166
244 166 406 0 133 -36 242 -114 348 -103 139 -248 212 -425 212 -53 0 -71 4
-85 18 -15 18 -15 20 1 34 10 9 56 28 103 43 47 15 93 35 103 44 22 21 47 137
47 220 0 53 6 76 34 130 37 72 41 92 56 263 8 94 7 132 -5 199 -9 46 -24 138
-35 204 -11 66 -25 140 -31 165 -17 64 -66 167 -106 219 -40 53 -41 73 -8 151
31 73 34 167 7 220 -48 96 -181 107 -263 21 -38 -40 -50 -140 -28 -243 15 -68
29 -96 79 -149 22 -24 40 -47 40 -51 0 -15 -45 -48 -65 -48 -15 0 -57 36 -124
104 -56 57 -109 113 -117 125 -9 12 -22 58 -30 103 -18 104 -46 160 -114 229
-75 76 -135 88 -225 45z m-496 -817 c50 -18 41 -45 -21 -64 -63 -18 -98 -19
-99 -2 -2 25 3 52 13 65 13 15 64 16 107 1z m-274 -168 c76 -44 79 -49 65
-125 -6 -35 -9 -72 -6 -83 6 -22 -32 -90 -65 -115 -13 -10 -39 -21 -56 -24
l-33 -6 0 184 c0 102 3 188 7 191 12 13 38 7 88 -22z m693 -27 c28 -19 28 -31
-4 -151 -41 -160 -73 -249 -97 -270 -12 -11 -80 -50 -152 -87 -71 -37 -145
-82 -163 -99 -32 -31 -34 -35 -29 -89 6 -67 5 -68 -125 -68 -135 0 -132 -4
-93 142 29 105 26 133 -16 191 -31 42 -29 56 11 92 34 31 46 61 70 175 12 58
28 112 36 120 12 12 47 15 177 16 121 1 185 7 252 22 114 25 107 25 133 6z
m5978 -112 c20 -13 44 -70 44 -106 0 -26 -6 -40 -22 -50 -13 -8 -97 -35 -188
-60 -173 -48 -209 -66 -224 -109 -13 -36 3 -67 96 -192 114 -153 130 -181 126
-223 -3 -31 -7 -37 -28 -40 -26 -3 -424 130 -447 150 -19 15 -16 35 9 68 27
37 16 53 -46 69 -24 6 -47 18 -50 27 -5 14 46 233 60 256 3 4 24 -2 46 -13 53
-27 87 -20 152 31 36 27 85 50 161 75 61 20 148 56 195 80 90 46 98 49 116 37z
m-2229 -262 c7 -14 13 -48 13 -76 0 -28 6 -59 15 -70 8 -10 15 -31 15 -46 0
-31 -20 -49 -215 -196 -132 -100 -144 -115 -131 -167 3 -13 32 -41 71 -66 64
-44 80 -62 69 -80 -8 -14 -73 -11 -128 6 -28 8 -74 18 -104 20 -30 3 -82 19
-120 38 -54 26 -68 37 -70 57 -6 52 -12 68 -47 111 -40 51 -40 52 -19 167 27
151 32 164 57 155 28 -10 102 -6 147 8 19 6 76 30 125 55 136 66 257 114 285
111 15 -1 30 -12 37 -27z m-3547 -345 c17 -21 -1 -83 -36 -125 -31 -36 -65
-39 -139 -11 -55 21 -76 44 -58 62 18 18 176 89 199 89 12 0 27 -7 34 -15z
m6128 -52 c7 -13 -2 -51 -28 -131 -43 -127 -54 -146 -79 -133 -39 22 -101 89
-101 109 0 14 28 49 76 97 78 78 114 93 132 58z m-7143 -66 c12 -24 16 -44 11
-68 -3 -19 -11 -72 -17 -119 -12 -97 -22 -120 -50 -120 -29 0 -79 53 -79 84 0
55 81 256 103 256 8 0 22 -15 32 -33z m417 24 c47 -6 65 -14 93 -41 52 -50 47
-66 -27 -88 -156 -48 -154 -48 -251 -14 -154 54 -187 87 -131 131 24 19 39 21
143 20 64 0 142 -4 173 -8z m5778 -5 c163 -52 397 -139 412 -154 20 -20 88
-184 88 -212 0 -21 -35 -50 -60 -50 -16 0 -453 301 -497 342 -13 12 -23 33
-23 48 0 45 10 48 80 26z m70 -224 c74 -52 159 -112 188 -134 28 -21 76 -55
105 -76 28 -22 89 -65 135 -96 88 -62 102 -78 102 -125 0 -16 12 -52 26 -78
39 -72 30 -108 -45 -193 -34 -37 -59 -74 -56 -82 8 -21 90 -68 119 -68 39 0
106 37 106 59 0 10 -9 26 -20 36 -19 17 -19 20 -4 36 9 10 42 35 74 55 61 39
80 66 80 114 0 16 5 32 10 35 20 13 38 -16 54 -88 37 -161 50 -204 75 -247 31
-54 88 -111 158 -158 29 -19 50 -38 47 -43 -3 -5 -280 -9 -616 -9 -601 0 -728
6 -728 33 0 6 33 44 73 86 118 125 167 242 167 404 0 158 -70 315 -187 415
-65 56 -83 87 -83 142 0 48 37 94 67 83 10 -3 79 -49 153 -101z m-6068 52 c16
-9 51 -34 76 -57 51 -47 334 -373 351 -405 16 -30 6 -45 -52 -78 -39 -22 -53
-36 -55 -56 -3 -23 2 -28 58 -46 37 -13 73 -19 90 -15 25 5 37 -2 89 -52 46
-44 68 -58 99 -62 83 -11 169 46 193 127 15 53 35 80 61 80 24 0 34 -26 48
-134 15 -111 65 -214 145 -301 31 -33 60 -68 66 -79 10 -17 7 -18 -43 -12
-172 19 -293 18 -408 -3 -98 -18 -152 -21 -385 -21 -290 0 -564 15 -579 30 -7
7 4 25 30 53 115 121 174 264 174 418 0 121 -21 186 -116 359 -31 57 -35 70
-29 110 20 134 95 192 187 144z m422 -6 c14 -23 46 -256 46 -336 0 -63 -18
-63 -77 3 -68 75 -213 278 -213 299 0 16 3 17 110 40 96 21 117 20 134 -6z
m4386 2 c115 -15 170 -26 182 -37 28 -26 26 -160 -4 -198 -23 -30 -212 -125
-247 -125 -46 0 -52 63 -15 144 34 75 30 88 -30 103 -62 15 -78 31 -79 77 -1
30 10 51 29 56 0 0 74 -9 164 -20z m-3733 -31 c40 -22 81 -52 90 -66 16 -24
16 -26 -3 -40 -24 -18 -48 -12 -154 40 -86 43 -104 63 -80 92 21 25 70 17 147
-26z m2913 -68 c119 -29 214 -57 229 -69 27 -20 63 -87 113 -210 29 -73 30
-112 2 -112 -7 0 -113 71 -234 158 -121 86 -249 177 -285 202 -64 45 -84 80
-46 80 10 0 110 -22 221 -49z m-2382 -77 c136 -58 211 -134 258 -263 24 -65
29 -91 29 -176 0 -79 -4 -107 -17 -128 -10 -14 -18 -34 -18 -44 0 -53 -126
-182 -218 -226 -61 -28 -76 -31 -167 -31 -93 0 -105 2 -165 32 -75 36 -140 87
-140 108 0 8 -4 14 -10 14 -12 0 -54 66 -64 100 -4 14 -14 40 -23 58 -8 18
-16 62 -19 97 -5 82 10 95 109 95 89 0 92 -10 39 -111 l-42 -79 25 0 c28 0
104 33 149 63 25 18 34 19 78 8 69 -16 84 -14 109 12 17 18 20 30 16 68 -5 44
-4 48 39 90 68 66 70 72 31 121 -18 24 -52 63 -75 88 -59 62 -77 97 -61 117
16 18 80 12 137 -13z m2193 -4 c248 -171 539 -382 559 -407 22 -29 27 -101 9
-135 -14 -26 -60 -44 -131 -53 -71 -9 -98 -26 -79 -49 7 -8 29 -18 50 -22 20
-4 60 -20 90 -35 36 -19 69 -29 98 -29 37 0 50 6 88 41 32 30 46 52 52 82 7
36 12 42 33 42 27 0 33 -11 123 -202 22 -44 52 -94 68 -109 58 -56 74 -54
-491 -54 -462 0 -520 2 -520 15 0 9 23 44 52 78 90 109 124 212 115 352 -7
120 -42 195 -133 295 -70 76 -79 93 -75 145 3 33 23 75 35 75 7 0 32 -14 57
-30z m3166 -17 c24 -19 46 -45 49 -57 3 -15 -8 -56 -31 -112 -55 -137 -99
-162 -142 -81 -25 48 -21 121 12 202 44 109 39 107 112 48z m-7421 16 c8 -6
14 -18 14 -25 0 -23 -79 -217 -100 -246 -11 -15 -20 -34 -20 -43 0 -9 -16 -31
-35 -49 -41 -39 -44 -68 -10 -101 24 -25 50 -31 71 -17 13 8 54 90 54 108 0
14 205 218 224 222 18 4 64 -52 72 -86 3 -15 13 -42 21 -61 18 -39 15 -248 -3
-272 -6 -8 -16 -32 -22 -55 -18 -62 -133 -189 -182 -201 -14 -3 -32 -11 -40
-18 -26 -21 -112 -36 -186 -31 -159 9 -300 120 -360 283 -36 98 -40 232 -10
304 10 24 25 61 34 82 9 21 28 49 44 62 15 13 28 28 28 34 0 26 118 92 207
116 55 15 179 11 199 -6z m6174 1 c11 -11 20 -26 20 -32 -1 -33 -40 -169 -63
-220 -22 -48 -33 -60 -71 -77 -53 -23 -68 -57 -42 -96 22 -34 60 -42 102 -21
25 11 36 25 41 46 3 17 10 33 14 36 5 3 9 17 9 32 0 15 6 39 14 53 7 15 14 37
14 50 0 39 22 122 38 147 22 34 48 27 102 -27 78 -81 114 -165 119 -285 4 -89
-11 -157 -52 -237 -29 -54 -129 -155 -163 -164 -14 -3 -31 -12 -38 -20 -21
-21 -121 -38 -186 -32 -59 5 -162 47 -170 69 -3 7 9 63 27 124 29 101 31 117
23 179 -5 38 -16 81 -24 96 -8 16 -14 33 -14 39 0 13 -37 65 -92 129 -21 24
-38 51 -38 61 0 24 83 105 122 119 18 7 42 17 53 23 37 20 70 26 153 27 69 1
85 -2 102 -19z m1884 -14 c39 -18 81 -44 93 -57 13 -13 38 -40 57 -59 40 -42
51 -61 77 -142 28 -89 26 -206 -6 -293 -27 -75 -64 -135 -82 -135 -7 0 -13 -6
-13 -13 0 -21 -50 -62 -120 -98 -61 -32 -70 -34 -165 -33 -90 1 -107 4 -167
32 -67 31 -154 108 -183 162 -18 34 -55 171 -55 202 0 14 6 28 13 31 28 10
237 -15 262 -33 6 -3 40 -12 78 -19 59 -12 70 -11 92 3 49 32 25 101 -49 141
-20 11 -36 23 -36 26 0 4 -28 26 -62 50 -86 58 -168 129 -168 145 0 20 69 73
130 99 44 19 73 24 144 25 81 0 96 -3 160 -34z m-3064 -65 c0 -19 -39 -61 -56
-61 -34 0 -44 102 -12 121 15 10 68 -37 68 -60z m-4873 23 c18 -14 33 -30 33
-37 0 -18 -167 -193 -176 -184 -16 16 74 247 97 247 7 0 27 -11 46 -26z m1704
-18 c55 -58 64 -73 49 -92 -18 -21 -24 -18 -80 36 -28 28 -55 50 -60 50 -11 0
-21 30 -14 41 3 5 18 9 33 9 21 0 41 -13 72 -44z m-143 -139 c82 -62 92 -97
28 -97 -40 0 -137 28 -154 44 -25 24 24 110 56 99 10 -3 41 -24 70 -46z m2350
37 c39 -16 41 -40 12 -114 -11 -28 -20 -70 -20 -93 0 -56 -7 -64 -62 -72 -55
-8 -72 -25 -72 -70 0 -43 19 -65 56 -65 45 0 85 45 93 106 4 27 12 58 18 68 5
11 11 41 13 66 5 65 30 120 53 120 36 0 105 -79 131 -151 25 -67 28 -209 5
-253 -8 -15 -15 -36 -15 -46 0 -33 -90 -127 -154 -161 -80 -43 -181 -47 -265
-10 -60 26 -111 60 -111 74 0 5 -11 17 -24 28 -13 10 -29 33 -36 51 -7 18 -19
47 -26 64 -17 40 -23 183 -8 215 6 13 19 42 28 63 39 89 127 163 221 185 49
12 128 10 163 -5z m3631 -26 c64 -48 181 -157 181 -169 0 -33 -294 -3 -327 33
-16 18 -16 22 -1 51 9 18 23 53 33 80 21 60 40 61 114 5z m-2511 10 c19 -19
14 -42 -23 -114 -56 -106 -88 -131 -101 -78 -10 40 74 204 104 204 5 0 13 -5
20 -12z m410 0 c15 -15 16 -97 1 -135 -14 -36 -14 -215 0 -241 6 -12 11 -29
11 -40 0 -11 7 -25 15 -32 14 -11 73 -108 87 -143 10 -24 -8 -57 -30 -57 -9 0
-41 -9 -71 -20 -66 -26 -146 -29 -186 -8 -17 9 -44 24 -62 33 -48 25 -119 114
-144 179 -28 75 -28 155 0 237 26 75 46 109 65 109 18 0 156 -144 156 -163 0
-27 37 -104 53 -110 27 -10 56 4 66 34 11 32 7 51 -21 91 -15 22 -18 46 -18
140 0 120 6 138 45 138 12 0 26 -5 33 -12z m-103 -15 c14 -13 16 -34 13 -119
-1 -56 -7 -106 -11 -110 -4 -5 -20 4 -35 19 -15 15 -55 53 -89 83 -35 31 -63
63 -63 70 0 16 113 72 147 73 12 1 29 -6 38 -16z m-385 2 c0 -11 -50 -101 -69
-125 -14 -18 -23 -22 -31 -14 -19 19 5 96 37 121 25 21 63 31 63 18z m653 -87
c58 -57 72 -104 35 -111 -20 -4 -19 -4 5 -6 36 -1 44 -25 45 -124 2 -120 -49
-201 -81 -130 -6 15 -20 36 -29 45 -10 10 -18 31 -18 46 0 15 -6 34 -12 41
-17 16 -16 207 0 239 16 28 26 28 55 0z m-4463 -103 c21 -25 3 -80 -36 -114
-30 -26 -43 -31 -89 -31 -43 0 -59 5 -84 26 -26 22 -31 33 -31 70 0 33 4 44
15 44 9 0 18 -8 22 -17 3 -10 13 -26 21 -35 26 -31 122 -18 122 15 0 16 28 57
39 57 5 0 14 -7 21 -15z"/>
<path d="M2473 8675 c-85 -19 -197 -79 -258 -140 -121 -122 -193 -376 -154
-545 27 -119 128 -257 241 -330 39 -26 129 -61 290 -115 128 -43 247 -84 263
-92 82 -41 119 -107 118 -213 0 -79 -13 -120 -57 -179 -76 -101 -236 -137
-405 -91 -94 27 -136 48 -197 103 -56 50 -87 103 -134 225 -24 64 -36 82 -51
82 -11 0 -24 -10 -29 -22 -10 -22 -53 -568 -46 -575 2 -2 22 6 45 18 48 25 54
24 316 -15 331 -50 530 -27 716 84 226 134 339 398 284 661 -33 158 -115 264
-253 330 -37 17 -181 74 -320 125 -139 51 -269 104 -288 119 -60 46 -82 117
-63 205 14 66 61 120 137 157 48 24 70 28 137 28 70 0 89 -4 145 -32 81 -40
170 -111 229 -183 24 -30 47 -54 50 -53 3 1 9 22 13 45 4 24 18 107 32 186 33
184 34 176 -5 156 -39 -20 -80 -15 -178 20 -41 15 -112 33 -159 41 -105 19
-334 18 -419 0z"/>
<path d="M8398 8640 c-70 -12 -166 -46 -221 -79 -63 -37 -147 -119 -189 -184
l-33 -52 -3 -373 -3 -373 43 -82 c51 -97 165 -217 247 -261 124 -66 154 -70
604 -74 446 -3 441 -4 373 53 -54 45 -58 75 -54 390 3 261 4 282 24 315 11 19
36 45 55 58 65 44 53 47 -226 50 -143 1 -270 0 -282 -3 -33 -8 -28 -22 15 -42
69 -33 74 -54 70 -333 -4 -265 -6 -277 -62 -330 -21 -19 -40 -25 -90 -28 -113
-7 -203 49 -279 176 -90 149 -123 294 -114 492 10 193 66 353 158 448 64 67
90 77 205 77 96 0 103 -2 176 -38 86 -42 131 -87 206 -205 l47 -75 3 44 c2 24
-1 87 -7 139 -6 52 -14 134 -17 183 -4 48 -10 90 -14 92 -4 3 -25 -2 -46 -11
-44 -18 -81 -16 -249 15 -113 21 -251 25 -337 11z"/>
<path d="M3342 8616 c-5 -6 -17 -58 -27 -116 -10 -58 -26 -150 -36 -205 -30
-161 -23 -175 31 -62 50 102 137 190 213 212 31 9 69 15 84 13 l28 -3 3 -565
2 -565 -22 -45 c-17 -34 -35 -51 -70 -69 -27 -13 -48 -29 -48 -37 0 -12 54
-14 325 -14 282 0 325 2 325 15 0 8 -20 24 -45 36 -27 13 -53 35 -67 58 l-23
36 -3 579 -3 579 55 -6 c30 -3 72 -13 93 -23 59 -28 145 -123 183 -203 20 -40
38 -67 43 -62 8 8 -27 252 -56 396 -12 55 -14 60 -37 57 -64 -9 -832 -12 -883
-4 -40 6 -60 6 -65 -2z"/>
<path d="M10180 8619 c-47 -4 -259 -7 -472 -8 -261 -1 -389 -4 -393 -12 -4 -5
11 -27 33 -47 26 -24 42 -49 47 -72 3 -19 5 -294 3 -610 -3 -528 -4 -578 -21
-607 -9 -18 -30 -41 -45 -50 -33 -21 -44 -35 -34 -45 4 -4 223 -9 487 -12 264
-2 493 -6 509 -8 l29 -3 73 255 c40 140 73 261 74 268 1 30 -26 2 -60 -66 -82
-159 -208 -272 -344 -308 -127 -34 -221 -5 -266 81 -25 49 -25 54 -28 316 -4
321 -8 309 111 309 126 0 204 -54 258 -178 22 -51 32 -61 43 -43 8 12 -67 517
-78 528 -7 7 -26 -42 -26 -67 0 -30 -48 -79 -88 -90 -47 -13 -163 -13 -196 0
-26 9 -26 11 -26 116 0 121 14 164 64 196 27 16 45 19 131 16 120 -5 184 -31
258 -105 40 -40 106 -149 129 -214 4 -10 9 -11 16 -4 8 8 0 72 -28 230 -45
246 -44 246 -62 243 -7 0 -51 -4 -98 -9z"/>
<path d="M10427 8623 c-18 -18 -4 -44 34 -63 78 -40 74 3 74 -860 0 -754 0
-766 -21 -800 -11 -19 -39 -48 -62 -63 -30 -20 -42 -35 -42 -53 l0 -24 363 2
362 3 3 27 c2 19 -2 28 -17 33 -33 10 -71 45 -91 85 -17 34 -20 68 -26 327 -8
334 -4 360 52 386 46 22 48 21 117 -96 147 -246 275 -557 265 -643 -2 -22 -13
-34 -46 -52 -33 -19 -42 -29 -40 -46 3 -21 4 -21 363 -24 198 -1 370 0 383 3
36 9 27 40 -17 57 -51 20 -77 66 -140 244 -27 76 -59 164 -71 194 -38 96 -166
344 -239 461 -39 62 -71 118 -71 124 0 7 21 26 48 43 127 83 225 192 264 297
26 70 31 197 9 259 -17 49 -73 112 -124 137 -88 45 -138 49 -748 49 -317 0
-579 -3 -582 -7z m873 -205 c173 -88 129 -358 -83 -514 -69 -51 -183 -108
-197 -99 -6 4 -10 106 -10 268 0 295 4 317 70 349 53 27 163 24 220 -4z"/>
<path d="M4390 8597 c0 -8 15 -26 34 -40 23 -18 37 -39 45 -71 15 -59 16
-1162 1 -1203 -6 -15 -29 -44 -51 -64 -24 -21 -39 -42 -35 -48 9 -14 552 -16
561 -1 3 5 -3 17 -13 26 -60 51 -71 65 -81 100 -6 23 -11 135 -11 267 l0 228
25 24 c47 47 59 37 152 -136 92 -169 154 -320 160 -389 l6 -59 -36 -21 c-23
-14 -34 -27 -30 -36 4 -12 65 -14 394 -14 242 0 389 4 389 10 0 5 -18 27 -40
49 -32 31 -40 47 -40 75 0 38 56 273 87 366 17 51 20 55 52 58 121 12 311
-113 378 -246 23 -47 28 -70 28 -131 l0 -73 -46 -42 c-26 -22 -44 -47 -42 -53
4 -10 100 -13 434 -13 402 0 429 1 429 18 0 9 -15 29 -34 44 -55 44 -57 71
-54 623 3 425 5 490 18 490 8 0 38 -34 68 -75 29 -41 75 -106 103 -145 190
-264 434 -617 452 -650 25 -50 34 -178 15 -214 -7 -14 -26 -32 -43 -41 -16 -9
-30 -23 -30 -31 0 -11 32 -14 173 -17 167 -2 172 -2 172 18 0 12 -10 25 -25
32 -14 6 -33 23 -42 37 -17 24 -18 71 -21 596 -4 650 -3 656 60 708 24 20 38
39 34 46 -10 16 -346 16 -346 -1 0 -7 21 -31 48 -54 l47 -41 3 -218 c3 -175 1
-216 -10 -213 -15 4 -216 298 -253 370 -31 59 -31 65 0 110 14 20 25 42 25 47
0 14 -676 15 -685 2 -3 -5 14 -29 38 -53 l44 -43 7 -535 c8 -614 0 -731 -52
-738 -36 -5 -57 47 -141 353 -16 61 -48 175 -70 255 -22 80 -58 209 -80 285
-22 77 -54 194 -71 259 l-30 119 20 40 c36 68 40 67 -244 67 -140 0 -257 -4
-260 -8 -3 -5 4 -21 15 -38 10 -16 19 -44 19 -63 0 -19 -45 -174 -101 -345
-56 -171 -132 -408 -171 -526 -85 -264 -107 -322 -122 -317 -6 2 -37 68 -68
148 -71 177 -106 249 -197 408 -39 68 -71 128 -71 132 0 4 34 34 77 66 88 67
145 143 167 224 39 138 -3 244 -119 296 -36 16 -83 18 -527 21 -417 2 -488 1
-488 -11z m680 -149 c161 -82 87 -338 -129 -446 -70 -35 -87 -38 -93 -19 -2 6
-2 108 1 225 6 213 6 213 31 232 47 36 128 39 190 8z m1064 -195 c8 -27 34
-120 56 -208 22 -88 46 -175 51 -192 6 -18 8 -37 4 -42 -3 -6 -37 7 -78 29
-40 22 -96 44 -125 50 -30 7 -52 17 -52 25 0 7 11 50 24 96 13 46 33 118 44
159 40 147 51 159 76 83z"/>
<path d="M3715 6838 c-8 -39 -75 -434 -75 -446 0 -30 19 -6 54 68 64 133 182
225 279 218 l42 -3 3 -550 c2 -302 0 -569 -3 -592 -7 -47 -39 -84 -98 -115
-77 -39 -50 -43 291 -46 313 -2 322 -2 322 17 0 13 -11 23 -33 30 -43 14 -85
58 -97 101 -7 26 -13 655 -10 1133 0 25 3 27 43 27 101 0 220 -93 286 -224 19
-36 38 -66 42 -66 5 0 9 2 9 4 0 7 -50 330 -61 394 l-11 62 -82 -7 c-44 -5
-254 -8 -466 -8 -293 0 -390 3 -407 13 -20 11 -23 10 -28 -10z"/>
<path d="M8415 6824 c-149 -31 -285 -123 -367 -248 l-38 -59 0 -376 c0 -348 2
-379 20 -418 55 -121 173 -247 283 -301 129 -63 144 -65 581 -69 250 -3 402
-1 408 5 7 7 -4 25 -31 52 -23 23 -43 56 -46 73 -4 18 -5 163 -3 322 3 324 4
325 74 367 19 11 34 26 34 34 0 12 -44 14 -264 14 -145 0 -271 -3 -280 -6 -25
-10 -19 -22 19 -40 62 -29 65 -45 65 -312 0 -255 -5 -288 -48 -334 -67 -72
-212 -56 -305 34 -118 115 -191 320 -190 538 1 273 94 491 240 560 41 19 60
22 138 18 76 -3 100 -9 159 -37 85 -41 168 -123 216 -214 59 -111 58 -112 24
233 -9 85 -18 158 -20 161 -2 4 -21 -2 -41 -12 -47 -24 -63 -24 -208 6 -140
29 -307 32 -420 9z"/>
<path d="M9732 6785 c-164 -57 -273 -161 -322 -306 -31 -91 -26 -230 12 -311
53 -113 114 -153 407 -264 198 -75 231 -105 231 -212 -1 -153 -141 -245 -319
-208 -176 37 -289 143 -351 329 -32 93 -50 110 -50 45 0 -42 24 -351 36 -455
l5 -52 84 0 c45 0 125 -8 176 -17 61 -12 141 -18 229 -18 120 1 144 4 215 28
110 38 179 79 251 150 74 75 113 152 123 247 16 149 -19 270 -103 357 -52 55
-74 66 -287 147 -190 72 -240 99 -269 148 -40 65 -17 176 47 227 25 20 37 22
114 18 149 -7 244 -74 318 -223 28 -58 35 -66 45 -53 9 12 7 63 -7 215 -11
109 -23 202 -27 207 -5 5 -25 1 -47 -9 -36 -18 -39 -17 -128 5 -59 16 -128 25
-200 27 -98 3 -118 1 -183 -22z"/>
<path d="M4785 6760 c-9 -14 2 -28 34 -45 60 -31 61 -39 61 -643 0 -367 -4
-560 -11 -587 -7 -24 -26 -53 -51 -76 -23 -21 -38 -42 -34 -48 5 -8 92 -11
287 -11 240 0 279 2 279 15 0 8 -17 26 -38 39 -66 42 -67 47 -67 464 0 320 2
374 15 382 19 12 330 13 348 1 11 -6 13 -83 13 -389 0 -425 -1 -428 -67 -459
-21 -11 -34 -23 -32 -33 3 -13 39 -15 287 -15 309 0 325 3 252 49 -29 19 -43
36 -50 63 -7 24 -11 238 -11 595 0 623 0 618 66 654 20 11 33 25 32 34 -3 13
-42 15 -286 15 -180 0 -283 -4 -284 -10 -1 -5 14 -20 33 -33 52 -35 61 -62 67
-198 l5 -123 -29 -12 c-45 -17 -342 -8 -355 11 -14 20 -3 212 15 253 7 19 26
43 42 55 49 37 55 43 49 53 -8 13 -562 12 -570 -1z"/>
<path d="M6197 6763 c-15 -14 -5 -30 29 -46 65 -31 64 -21 64 -662 l0 -576
-50 -50 c-27 -27 -50 -56 -50 -64 0 -23 565 -22 574 0 4 11 -6 23 -30 37 -66
39 -64 16 -64 652 0 634 -1 623 62 660 17 11 28 25 26 34 -3 15 -31 17 -279
20 -151 1 -278 -1 -282 -5z"/>
<path d="M6855 6759 c-4 -5 11 -27 33 -47 31 -29 41 -47 47 -82 3 -25 5 -292
3 -595 -3 -605 -2 -590 -65 -630 -18 -11 -31 -27 -30 -35 2 -13 28 -15 167
-15 147 0 165 2 168 17 2 11 -8 23 -28 33 -65 34 -65 34 -62 594 1 278 5 507
8 510 8 8 46 -39 141 -169 42 -58 108 -148 147 -200 333 -449 366 -503 374
-613 l5 -68 -48 -45 c-32 -30 -45 -48 -38 -55 6 -6 74 -8 174 -7 143 3 164 5
167 20 2 10 -9 23 -27 34 -62 37 -61 26 -61 641 0 350 4 572 10 595 7 23 26
50 53 72 35 30 39 38 27 46 -20 13 -337 13 -345 0 -3 -5 12 -22 34 -37 67 -47
72 -65 69 -285 -2 -121 -7 -193 -13 -192 -5 0 -37 39 -70 86 -33 48 -87 125
-120 172 -33 47 -66 102 -74 122 -14 34 -13 40 7 78 12 22 22 47 22 54 0 16
-665 18 -675 1z"/>
<path d="M2083 6563 c-9 -3 -13 -32 -13 -93 0 -83 1 -88 23 -93 30 -7 1384 -8
1414 -1 22 6 23 10 23 94 0 71 -3 89 -16 94 -19 7 -1413 7 -1431 -1z"/>
<path d="M10463 6562 c-10 -6 -17 -82 -14 -159 l1 -23 840 0 841 0 -3 93 -3
92 -825 2 c-454 2 -830 -1 -837 -5z"/>
<path d="M3893 5133 c-9 -3 -13 -31 -13 -89 l0 -83 728 -3 c632 -3 734 -6 780
-19 29 -9 58 -21 64 -27 5 -5 23 -90 38 -188 50 -315 59 -344 125 -414 18 -19
46 -57 62 -85 19 -32 47 -61 78 -82 87 -56 88 -57 81 -127 -3 -33 -9 -161 -12
-284 -7 -237 1 -304 47 -405 21 -46 25 -132 9 -187 -6 -19 -12 -84 -15 -145
-3 -60 -9 -113 -14 -118 -16 -16 -59 14 -167 120 -96 93 -117 120 -157 198
-55 110 -102 164 -221 259 -99 79 -108 92 -126 178 -12 61 -30 87 -30 44 0
-45 -21 -40 -82 20 -92 90 -118 130 -118 179 0 54 -10 105 -21 105 -4 0 -12
-19 -16 -42 -11 -55 -29 -55 -66 -1 -25 35 -31 54 -35 119 -4 70 -6 75 -18 53
-7 -14 -13 -56 -14 -96 0 -39 -4 -74 -9 -77 -16 -10 -93 85 -125 155 -18 38
-35 66 -39 63 -13 -14 -6 -69 14 -113 29 -64 10 -76 -41 -26 -80 78 -55 -8 28
-97 45 -48 127 -98 164 -98 30 0 77 -50 89 -93 21 -79 29 -92 77 -125 34 -23
59 -32 88 -32 38 0 45 -5 106 -73 74 -82 144 -180 178 -247 13 -25 57 -79 98
-120 70 -70 111 -122 215 -269 190 -270 219 -302 289 -322 25 -7 59 -28 82
-51 25 -24 48 -38 65 -38 14 0 33 -5 41 -10 13 -9 10 -14 -14 -36 -26 -23 -34
-25 -77 -19 -40 6 -55 3 -83 -15 -48 -29 -84 -74 -118 -145 -31 -65 -35 -100
-15 -108 24 -9 245 -39 263 -35 9 2 24 23 33 48 28 77 57 67 128 -42 24 -38
51 -68 59 -68 8 0 23 21 34 48 48 115 69 131 109 83 l28 -34 59 23 c61 25 134
83 134 105 0 8 -16 19 -35 25 -47 16 -171 168 -180 221 -11 61 3 102 50 152
71 73 71 75 -14 356 -17 57 -31 117 -31 132 0 41 89 180 169 264 37 39 82 93
101 120 48 72 71 95 95 95 23 0 100 47 129 79 18 19 17 20 -15 29 -47 12 -41
41 22 110 58 63 84 110 93 167 7 42 0 60 -23 60 -7 0 -21 21 -31 47 -18 49
-59 112 -67 104 -2 -2 5 -38 16 -78 24 -86 27 -146 8 -173 -22 -29 -34 -10
-43 67 l-8 73 -11 -65 c-25 -141 -45 -179 -80 -150 -12 10 -15 7 -20 -17 -31
-144 -106 -274 -235 -404 -101 -102 -212 -184 -236 -175 -12 5 -12 12 5 45 12
23 20 55 18 77 -2 38 -2 38 77 78 192 98 261 235 236 469 -6 56 -15 181 -20
277 -7 152 -11 185 -35 250 -24 65 -29 100 -38 268 -8 142 -8 195 0 200 6 4
454 8 995 10 848 2 986 1 1003 -12 19 -13 20 -28 23 -207 4 -248 3 -252 -120
-354 -49 -41 -93 -75 -96 -75 -18 1 -32 21 -60 88 -34 82 -140 258 -160 266
-7 3 -41 -5 -76 -18 -34 -13 -98 -31 -140 -40 -43 -9 -98 -25 -123 -36 -49
-22 -62 -19 -102 24 -25 27 -55 34 -66 15 -9 -14 108 -183 129 -187 9 -2 32
10 51 27 38 33 45 35 145 51 97 15 118 13 134 -12 8 -13 24 -85 36 -162 l21
-138 -21 -35 c-11 -19 -20 -45 -20 -59 0 -13 29 -80 65 -148 36 -68 65 -133
65 -145 0 -23 -33 -41 -74 -41 -37 0 -97 95 -107 168 -12 87 -24 112 -53 112
-15 0 -30 -8 -36 -21 -11 -20 -8 -33 41 -195 15 -48 87 -143 112 -148 12 -3
65 -7 118 -9 95 -5 156 -22 191 -54 13 -12 18 -31 18 -75 0 -99 35 -138 124
-138 52 0 92 27 101 69 5 26 -6 123 -21 173 -3 10 -20 21 -37 26 l-32 8 -2 75
c-2 84 16 140 52 159 17 9 26 9 42 0 26 -17 62 -71 78 -117 16 -47 37 -62 59
-44 21 18 14 39 -40 121 -50 75 -119 150 -139 150 -7 0 -34 -16 -59 -35 -26
-19 -52 -35 -60 -35 -28 0 -46 36 -46 91 0 90 15 122 91 203 98 103 135 154
148 199 7 28 6 93 -5 235 -8 109 -12 207 -9 219 3 13 20 31 38 40 30 17 94 18
892 23 l860 5 0 85 0 85 -3280 2 c-1804 1 -3286 -1 -3292 -4z m2515 -192 c31
-16 36 -61 35 -276 -1 -104 3 -334 8 -509 8 -279 7 -322 -6 -342 -18 -28 -54
-47 -119 -63 -26 -6 -83 -30 -127 -51 -76 -39 -113 -48 -123 -32 -2 4 -12 84
-21 177 -31 328 -36 341 -164 444 -48 38 -105 80 -127 92 -134 77 -164 125
-221 354 -25 101 7 208 64 219 58 10 780 -2 801 -13z"/>
</g>
</svg>
